#usda 1.0
(
    customLayerData = {
        dictionary cameraSettings = {
            dictionary Front = {
                double3 position = (0, 0, 500)
                double radius = 500
            }
            dictionary Perspective = {
                double3 position = (1.7745506454794688, 0.6013691830172195, 0.9448601504041498)
                double3 target = (0.19297963355087533, -0.14481282655042804, -0.05696670513289326)
            }
            dictionary Right = {
                double3 position = (-500, 0, 0)
                double radius = 500
            }
            dictionary Top = {
                double3 position = (0, 500, 0)
                double radius = 500
            }
            string boundCamera = "/OmniverseKit_Persp"
        }
        dictionary metricsAssembler = {
            dictionary "/Root/lion_head_2k" = {
            }
            int version = 1
        }
        dictionary renderSettings = {
            double "rtx:post:chromaticAberration:strengthB" = -0.054999999701976776
            double "rtx:post:chromaticAberration:strengthG" = -0.054999999701976776
        }
    }
    defaultPrim = "Root"
    metersPerUnit = 1
    upAxis = "Y"
)

def Xform "Root"
{
    def "lion_head_2k" (
        prepend references = @./assets/lion_head_2k.usdz@
    )
    {
        double xformOp:rotateX:unitsResolve = -90
        float3 xformOp:rotateXYZ = (0, 0, 0)
        float3 xformOp:scale = (1, 1, 1)
        double3 xformOp:translate = (0, 0, 0)
        uniform token[] xformOpOrder = ["xformOp:translate", "xformOp:rotateXYZ", "xformOp:scale", "xformOp:rotateX:unitsResolve"]

        over "_materials"
        {
            over "lion_head"
            {
                over "Principled_BSDF"
                {
                    normal3f inputs:normal.connect = </Root/lion_head_2k/_materials/lion_head/Image_Texture_003.outputs:rgb>
                }

                over "Image_Texture"
                {
                    asset inputs:file = @./textures/lion_head_diff_2k.jpg@
                }

                over "Image_Texture_001"
                {
                    asset inputs:file = @./textures/lion_head_metal_2k.png@
                }

                over "Image_Texture_002"
                {
                    asset inputs:file = @./textures/lion_head_rough_2k.png@
                }

                over "Image_Texture_003"
                {
                    asset inputs:file = @./textures/lion_head_nor_gl_2k.png@
                }
            }
        }

        over "env_light"
        {
            asset inputs:texture:file = @../../hdr/bryanston_park_sunrise_2k.hdr@
        }
    }

    def Mesh "Plane"
    {
        float3[] extent = [(-0.5, 0, -0.5), (0.5, 0, 0.5)]
        int[] faceVertexCounts = [4]
        int[] faceVertexIndices = [0, 2, 3, 1]
        normal3f[] normals = [(0, 1, 0), (0, 1, 0), (0, 1, 0), (0, 1, 0)] (
            interpolation = "faceVarying"
        )
        point3f[] points = [(-0.5, 0, -0.5), (0.5, 0, -0.5), (-0.5, 0, 0.5), (0.5, 0, 0.5)]
        texCoord2f[] primvars:st = [(0, 1), (0, 0), (1, 0), (1, 1)] (
            interpolation = "faceVarying"
        )
        uniform token subdivisionScheme = "none"
        double3 xformOp:rotateXYZ = (0, 0, 0)
        double3 xformOp:scale = (1, 1, 1)
        double3 xformOp:translate = (0.06105268746614456, 0, 0.02715362049639225)
        uniform token[] xformOpOrder = ["xformOp:translate", "xformOp:rotateXYZ", "xformOp:scale"]
    }

    def Camera "Camera"
    {
        float2 clippingRange = (0.1, 1000)
        float focalLength = 20.78461
        float horizontalAperture = 36
        float verticalAperture = 24
        matrix4d xformOp:transform = ( (0.8475868701934814, -7.450582373280668e-9, -0.5306568741798401, -0), (-0.14693336188793182, 0.9609019160270691, -0.23468801379203796, 0), (0.5099090933799744, 0.2768896222114563, 0.8144477009773254, -0), (0.33921241760253906, 0.32706698775291443, 0.414447158575058, 1) )
        uniform token[] xformOpOrder = ["xformOp:transform"]
    }
}

