#usda 1.0
(
    customLayerData = {
        dictionary cameraSettings = {
            dictionary Front = {
                double3 position = (0, 0, 500)
                double radius = 500
            }
            dictionary Perspective = {
                double3 position = (0.6408739122223839, 0.6408739122223839, 0.6408739122223839)
                double3 target = (-2.220446049250313e-16, -2.220446049250313e-16, -2.220446049250313e-16)
            }
            dictionary Right = {
                double3 position = (-500, 0, 0)
                double radius = 500
            }
            dictionary Top = {
                double3 position = (0, 500, 0)
                double radius = 500
            }
            string boundCamera = "/OmniverseKit_Persp"
        }
        string creator = "Convert3D.org"
        dictionary metricsAssembler = {
            dictionary "/Geom/Camera_01_2k" = {
            }
            int version = 1
        }
        dictionary omni_layer = {
            dictionary locked = {
            }
            dictionary muteness = {
            }
        }
        dictionary renderSettings = {
            double "rtx:post:chromaticAberration:strengthB" = -0.054999999701976776
            double "rtx:post:chromaticAberration:strengthG" = -0.054999999701976776
        }
    }
    defaultPrim = "Geom"
    endTimeCode = 0
    metersPerUnit = 1
    startTimeCode = -1
    upAxis = "Y"
)

def Scope "Geom"
{
    def Mesh "Plane"
    {
        float3[] extent = [(-0.5, 0, -0.5), (0.5, 0, 0.5)]
        int[] faceVertexCounts = [4]
        int[] faceVertexIndices = [0, 2, 3, 1]
        normal3f[] normals = [(0, 1, 0), (0, 1, 0), (0, 1, 0), (0, 1, 0)] (
            interpolation = "faceVarying"
        )
        point3f[] points = [(-0.5, 0, -0.5), (0.5, 0, -0.5), (-0.5, 0, 0.5), (0.5, 0, 0.5)]
        texCoord2f[] primvars:st = [(0, 1), (0, 0), (1, 0), (1, 1)] (
            interpolation = "faceVarying"
        )
        uniform token subdivisionScheme = "none"
        double3 xformOp:rotateXYZ = (0, 0, 0)
        double3 xformOp:scale = (1, 1, 1)
        double3 xformOp:translate = (0, 0, 0)
        uniform token[] xformOpOrder = ["xformOp:translate", "xformOp:rotateXYZ", "xformOp:scale"]
    }

    def "Camera_01_2k" (
        prepend references = @./Camera_01_2k.usdc@
    )
    {
        double xformOp:rotateX:unitsResolve = -90
        float3 xformOp:rotateXYZ = (0, 0, 0)
        float3 xformOp:scale = (1, 1, 1)
        double3 xformOp:translate = (0, 0, 0)
        uniform token[] xformOpOrder = ["xformOp:translate", "xformOp:rotateXYZ", "xformOp:scale", "xformOp:rotateX:unitsResolve"]
    }
}

def Xform "Root"
{
    def DomeLight "DomeLight"
    {
        float inputs:intensity = 1
    }

    def Camera "Camera"
    {
        float2 clippingRange = (0.1, 1000)
        float focalLength = 20.78461
        float horizontalAperture = 36
        float verticalAperture = 24
        matrix4d xformOp:transform = ( (0.8500651717185974, -0, -0.5266776084899902, -0), (-0.18471303582191467, 0.9364829063415527, -0.29812943935394287, 0), (0.49322450160980225, 0.3507136404514313, 0.7960713505744934, -0), (0.09769152849912643, 0.09411334991455078, 0.24396878480911255, 1) )
        uniform token[] xformOpOrder = ["xformOp:transform"]
    }
}

